<?xml version="1.0" encoding="UTF-8" standalone="no"?>
<!DOCTYPE svg PUBLIC "-//W3C//DTD SVG 1.1//EN" "http://www.w3.org/Graphics/SVG/1.1/DTD/svg11.dtd">
<svg width="100%" height="100%" viewBox="0 0 512 291" version="1.1" xmlns="http://www.w3.org/2000/svg" xmlns:xlink="http://www.w3.org/1999/xlink" xml:space="preserve" xmlns:serif="http://www.serif.com/" style="fill-rule:evenodd;clip-rule:evenodd;stroke-linejoin:round;stroke-miterlimit:2;">
    <g transform="matrix(1,0,0,1,-1054.01,-1680.58)">
        <g transform="matrix(25.6021,0,0,25.6021,1002.79,1509.94)">
            <path d="M13.2,7.07L10.25,11L12.5,14C12.83,14.44 12.74,15.07 12.3,15.4C11.86,15.73 11.23,15.65 10.9,15.2C9.85,13.8 8.59,12.13 7.8,11.06C7.4,10.53 6.6,10.53 6.2,11.06L2.2,16.39C1.71,17.06 2.18,18 3,18L21,18C21.82,18 22.29,17.06 21.8,16.4L14.8,7.07C14.4,6.53 13.6,6.53 13.2,7.07Z" style="fill:url(#_Linear1);fill-rule:nonzero;"/>
        </g>
    </g>
    <defs>
        <linearGradient id="_Linear1" x1="0" y1="0" x2="1" y2="0" gradientUnits="userSpaceOnUse" gradientTransform="matrix(14.8335,0,0,14.8335,4.49542,13.1805)"><stop offset="0" style="stop-color:rgb(250,216,69);stop-opacity:1"/><stop offset="1" style="stop-color:rgb(0,255,254);stop-opacity:1"/></linearGradient>
    </defs>
</svg>
