<?xml version="1.0" encoding="UTF-8" standalone="no"?>
<!DOCTYPE svg PUBLIC "-//W3C//DTD SVG 1.1//EN" "http://www.w3.org/Graphics/SVG/1.1/DTD/svg11.dtd">
<svg width="100%" height="100%" viewBox="0 0 1055 796" version="1.1" xmlns="http://www.w3.org/2000/svg" xmlns:xlink="http://www.w3.org/1999/xlink" xml:space="preserve" xmlns:serif="http://www.serif.com/" style="fill-rule:evenodd;clip-rule:evenodd;stroke-miterlimit:10;">
    <g transform="matrix(1,0,0,1,-1297.31,-706.964)">
        <g transform="matrix(1,0,0,1,1297.31,716.014)">
            <g transform="matrix(1,0,0,1,-72.7989,-56.4364)">
                <path d="M498.799,510C468.204,623.588 403.436,723 285.799,723C168.162,723 72.799,627.637 72.799,510C72.799,392.363 196.788,373.912 285.799,297C466.553,140.814 593.81,157.253 498.799,510Z" style="fill:rgb(132,146,196);fill-rule:nonzero;"/>
            </g>
            <circle cx="488.402" cy="105" r="68" style="fill:rgb(33,150,243);"/>
            <rect x="575.402" y="10" width="36" height="36" style="fill:rgb(33,150,243);"/>
            <ellipse cx="215.598" cy="667" rx="170" ry="23.127" style="fill:rgb(63,61,86);"/>
            <rect x="263.402" y="129" width="230" height="117" style="fill:rgb(124,77,255);"/>
            <circle cx="206.402" cy="554" r="79" style="fill:rgb(47,46,65);"/>
            <rect x="170.402" y="616" width="24" height="43" style="fill:rgb(47,46,65);"/>
            <rect x="218.402" y="616" width="24" height="43" style="fill:rgb(47,46,65);"/>
            <ellipse cx="190.402" cy="659.5" rx="20" ry="7.5" style="fill:rgb(47,46,65);"/>
            <ellipse cx="238.402" cy="658.5" rx="20" ry="7.5" style="fill:rgb(47,46,65);"/>
            <circle cx="208.402" cy="534" r="27" style="fill:white;"/>
            <circle cx="208.402" cy="534" r="9" style="fill:rgb(63,61,86);"/>
            <g transform="matrix(1,0,0,1,-72.7989,-56.4364)">
                <path d="M202.568,536.969C196.19,508.401 216.58,479.535 248.112,472.494C279.645,465.453 310.378,482.904 316.756,511.472C323.135,540.039 302.238,550.575 270.706,557.616C239.174,564.657 208.947,565.536 202.568,536.969Z" style="fill:rgb(124,77,255);fill-rule:nonzero;"/>
            </g>
            <circle cx="179.402" cy="327" r="79" style="fill:rgb(47,46,65);"/>
            <rect x="143.402" y="389" width="24" height="43" style="fill:rgb(47,46,65);"/>
            <rect x="191.402" y="389" width="24" height="43" style="fill:rgb(47,46,65);"/>
            <ellipse cx="163.402" cy="432.5" rx="20" ry="7.5" style="fill:rgb(47,46,65);"/>
            <ellipse cx="211.402" cy="431.5" rx="20" ry="7.5" style="fill:rgb(47,46,65);"/>
            <circle cx="181.402" cy="307" r="27" style="fill:white;"/>
            <circle cx="181.402" cy="307" r="9" style="fill:rgb(63,61,86);"/>
            <g transform="matrix(1,0,0,1,-72.7989,-56.4364)">
                <path d="M175.568,309.969C169.19,281.401 189.58,252.535 221.112,245.494C252.645,238.453 283.378,255.904 289.756,284.472C296.135,313.039 275.238,323.575 243.706,330.616C212.174,337.657 181.947,338.536 175.568,309.969Z" style="fill:rgb(124,77,255);fill-rule:nonzero;"/>
            </g>
            <g transform="matrix(0.357029,-0.934093,0.934093,0.357029,-166.132,455.531)">
                <ellipse cx="325.221" cy="323.78" rx="39.5" ry="12.4" style="fill:rgb(47,46,65);"/>
            </g>
            <g transform="matrix(0.428529,-0.903528,0.903528,0.428529,-292.848,289.213)">
                <ellipse cx="163.221" cy="346.78" rx="12.4" ry="39.5" style="fill:rgb(47,46,65);"/>
            </g>
            <g transform="matrix(1,0,0,1,-72.7989,-56.4364)">
                <path d="M213.397,411.936C213.397,419.668 233.305,434.936 255.397,434.936C277.488,434.936 298.201,413.168 298.201,405.436C298.201,397.704 277.488,406.936 255.397,406.936C233.305,406.936 213.397,404.204 213.397,411.936Z" style="fill:white;fill-rule:nonzero;"/>
            </g>
            <rect x="285.402" y="112" width="230" height="117" style="fill:none;stroke:rgb(63,61,86);stroke-width:2px;"/>
            <rect x="587.402" y="1" width="36" height="36" style="fill:none;stroke:rgb(63,61,86);stroke-width:2px;"/>
            <g transform="matrix(1,0,0,1,-72.7989,-56.4364)">
                <path d="M1127.2,596.733C1127.2,678.561 1078.56,707.132 1018.55,707.132C958.542,707.132 909.897,678.561 909.897,596.733C909.897,514.906 1018.55,410.808 1018.55,410.808C1018.55,410.808 1127.2,514.906 1127.2,596.733Z" style="fill:rgb(132,146,196);fill-rule:nonzero;"/>
            </g>
            <path d="M941.792,638.179L942.905,569.696L989.215,484.974L943.079,558.954L943.58,528.161L975.496,466.865L943.712,520.012L943.712,520.013L944.612,464.631L978.789,415.832L944.753,455.922L945.315,354.372L941.783,488.806L942.073,483.26L907.325,430.072L941.516,493.906L938.278,555.758L938.182,554.116L898.123,498.144L938.06,559.916L937.655,567.651L937.583,567.767L937.616,568.402L929.402,725.325L940.377,725.325L941.693,644.272L981.533,582.651L941.792,638.179Z" style="fill:rgb(63,61,86);fill-rule:nonzero;"/>
            <ellipse cx="934.07" cy="725.322" rx="37.779" ry="11.194" style="fill:rgb(63,61,86);"/>
            <ellipse cx="764.598" cy="763" rx="170" ry="23.127" style="fill:rgb(63,61,86);"/>
            <circle cx="766.598" cy="644.5" r="79" style="fill:rgb(47,46,65);"/>
            <g transform="matrix(-1,7.65714e-16,-7.65714e-16,-1,1653.99,1512.44)">
                <rect x="851.397" y="762.936" width="24" height="43" style="fill:rgb(47,46,65);"/>
            </g>
            <g transform="matrix(-1,7.65714e-16,-7.65714e-16,-1,1557.99,1512.44)">
                <rect x="803.397" y="762.936" width="24" height="43" style="fill:rgb(47,46,65);"/>
            </g>
            <g transform="matrix(0.866025,-0.5,0.5,0.866025,-369.445,457.34)">
                <ellipse cx="810.397" cy="810.436" rx="20" ry="7.5" style="fill:rgb(47,46,65);"/>
            </g>
            <g transform="matrix(0.866025,-0.5,0.5,0.866025,-363.148,480.84)">
                <ellipse cx="857.397" cy="810.436" rx="20" ry="7.5" style="fill:rgb(47,46,65);"/>
            </g>
            <circle cx="764.598" cy="624.5" r="27" style="fill:white;"/>
            <circle cx="755.402" cy="613" r="9" style="fill:rgb(63,61,86);"/>
            <g transform="matrix(1,0,0,1,-72.7989,-56.4364)">
                <path d="M916.029,627.469C922.408,598.901 902.017,570.035 870.485,562.994C838.953,555.953 808.22,573.404 801.841,601.971C795.462,630.539 816.36,641.075 847.892,648.116C879.424,655.157 909.65,656.036 916.029,627.469Z" style="fill:rgb(124,77,255);fill-rule:nonzero;"/>
            </g>
            <g transform="matrix(0.393479,-0.919334,0.919334,0.393479,-225.096,1060.28)">
                <ellipse cx="770.181" cy="673.78" rx="12.4" ry="39.5" style="fill:rgb(47,46,65);"/>
            </g>
            <g transform="matrix(0.393479,-0.919334,0.919334,0.393479,-184.056,1228.49)">
                <ellipse cx="918.181" cy="726.78" rx="12.4" ry="39.5" style="fill:rgb(47,46,65);"/>
            </g>
            <rect x="633.402" y="570" width="36" height="36" style="fill:rgb(33,150,243);"/>
            <rect x="595.402" y="506" width="36" height="36" style="fill:none;stroke:rgb(63,61,86);stroke-width:2px;"/>
            <g transform="matrix(1,0,0,1,-72.7989,-56.4364)">
                <path d="M855.201,735.436C855.201,745.311 847.076,753.436 837.201,753.436C827.327,753.436 819.201,745.311 819.201,735.436C819.201,725.495 827.26,723.436 837.201,723.436C847.142,723.436 855.201,725.495 855.201,735.436Z" style="fill:white;fill-rule:nonzero;"/>
            </g>
        </g>
    </g>
</svg>
